<?xml version="1.0" standalone="no"?>
<!DOCTYPE svg PUBLIC "-//W3C//DTD SVG 20010904//EN"
 "http://www.w3.org/TR/2001/REC-SVG-20010904/DTD/svg10.dtd">
<svg version="1.0" xmlns="http://www.w3.org/2000/svg"
 width="596.000000pt" height="596.000000pt" viewBox="0 0 596.000000 596.000000"
 preserveAspectRatio="xMidYMid meet">
<metadata>
Created by potrace 1.11, written by Peter Selinger 2001-2013
</metadata>
<g transform="translate(0.000000,596.000000) scale(0.100000,-0.100000)"
fill="#000000" stroke="none">
<path d="M2953 5692 c-29 -36 -64 -146 -79 -257 -4 -25 -11 -160 -14 -265 0
-24 -1 -24 -21 8 -12 17 -26 32 -32 32 -6 0 -8 3 -4 6 7 7 -17 34 -31 34 -5 0
-16 9 -23 20 -16 23 -64 33 -77 17 -20 -26 -1 -204 20 -191 4 3 5 -2 2 -10 -3
-8 2 -26 11 -40 10 -14 14 -26 11 -26 -3 0 8 -28 26 -62 18 -35 31 -66 30 -70
-1 -5 3 -8 9 -8 5 0 8 -4 4 -9 -3 -6 3 -14 12 -20 10 -5 17 -13 16 -18 0 -4 3
-7 8 -6 5 2 9 -6 9 -17 0 -11 5 -20 12 -20 6 0 9 -3 5 -6 -6 -7 0 -15 54 -74
20 -21 40 -36 44 -32 3 4 6 3 5 -3 -1 -5 -1 -14 0 -20 8 -41 1 -468 -8 -477
-8 -8 -9 -5 -5 11 3 13 1 21 -6 21 -7 0 -9 5 -6 10 3 6 1 10 -5 10 -6 0 -8 5
-5 10 3 6 0 13 -9 16 -8 3 -12 12 -9 20 3 8 0 14 -7 14 -6 0 -8 5 -5 10 3 6 1
10 -4 10 -6 0 -10 3 -10 8 1 4 1 9 0 12 -1 3 -4 57 -6 120 -1 63 -6 129 -9
145 -3 17 -7 38 -9 47 -2 10 -6 21 -10 24 -4 4 -7 14 -7 23 0 28 -17 43 -49
47 -22 3 -31 -1 -31 -11 0 -8 -5 -15 -12 -15 -6 0 -9 -3 -5 -6 3 -4 0 -19 -9
-35 -8 -16 -14 -31 -14 -34 0 -3 0 -17 0 -32 0 -26 0 -26 -19 -7 -10 10 -17
21 -16 22 3 3 -65 72 -97 98 -25 20 -74 32 -91 22 -9 -5 -17 -5 -18 -1 0 4 -6
-8 -14 -28 -17 -48 -10 -157 14 -222 7 -18 6 -24 -4 -24 -8 0 -12 4 -10 8 3 4
-12 10 -33 14 -20 4 -41 10 -47 13 -25 16 -63 9 -76 -15 -8 -15 -9 -27 -4 -31
6 -4 11 -14 13 -22 2 -8 8 -17 13 -18 5 -2 8 -7 6 -10 -2 -4 18 -28 45 -54 26
-26 48 -45 48 -41 0 3 9 -4 20 -17 11 -13 20 -19 20 -15 0 4 9 -2 20 -15 11
-13 20 -19 20 -14 0 5 5 1 11 -8 5 -10 17 -18 24 -18 8 0 15 -4 15 -8 0 -5 10
-13 23 -19 l22 -10 -22 -7 c-27 -8 -35 -29 -23 -58 5 -13 9 -19 9 -14 1 5 7 4
14 -2 7 -6 25 -9 40 -8 15 2 25 1 22 -2 -2 -3 3 -11 13 -19 9 -8 11 -11 4 -8
-11 6 -11 3 0 -14 7 -12 16 -21 21 -21 4 0 6 -4 3 -9 -3 -5 1 -11 9 -15 8 -3
12 -12 9 -21 -3 -8 -10 -12 -15 -9 -10 6 -62 15 -96 17 -12 1 -19 5 -17 9 6 9
3 10 -94 13 -50 1 -78 -2 -87 -11 -7 -7 -15 -11 -18 -8 -2 3 -7 -4 -10 -16 -3
-12 -1 -18 5 -14 10 6 -21 -47 -33 -56 -3 -3 -9 -26 -13 -52 -4 -26 -11 -50
-17 -53 -5 -4 -7 -11 -4 -16 4 -5 1 -9 -5 -9 -6 0 -9 -4 -6 -9 3 -5 -1 -14 -9
-21 -12 -10 -15 -9 -15 4 0 9 -5 16 -11 16 -5 0 -7 4 -4 10 3 5 -5 21 -18 34
-19 19 -22 28 -14 47 13 31 17 90 6 83 -5 -3 -9 -1 -9 3 0 15 -38 12 -44 -3
-10 -25 -23 -7 -21 28 1 18 0 37 -3 41 -4 9 -14 105 -13 140 0 9 -3 17 -7 17
-4 0 -9 11 -10 26 -1 14 -6 33 -12 43 -5 10 -6 21 -3 25 3 3 1 6 -5 6 -7 0
-11 3 -10 8 1 4 -4 17 -12 30 -21 32 -56 28 -75 -8 -8 -16 -15 -32 -15 -35 0
-3 -1 -7 -1 -10 -1 -3 -3 -9 -4 -15 -1 -5 -3 -25 -4 -42 l-1 -32 -30 32 c-17
19 -35 30 -42 26 -6 -4 -8 -3 -5 3 8 13 -31 45 -45 37 -6 -4 -8 -3 -5 3 9 14
-64 46 -94 41 -31 -4 -52 -25 -45 -43 3 -8 1 -17 -4 -20 -5 -3 -6 -18 -3 -33
8 -42 13 -76 15 -89 1 -7 4 -13 8 -13 4 0 7 -6 8 -12 0 -7 3 -26 7 -41 4 -19
2 -26 -5 -22 -25 16 -114 27 -142 19 -23 -7 -23 -52 0 -71 11 -9 11 -12 2 -8
-8 4 -4 -3 10 -16 14 -14 38 -38 54 -54 16 -17 26 -23 22 -15 -4 8 0 6 8 -4 9
-11 16 -16 16 -11 0 4 9 -2 20 -15 11 -13 20 -20 20 -16 0 4 7 1 15 -6 34 -31
43 -36 49 -31 3 4 6 1 6 -6 0 -7 4 -10 9 -6 5 3 17 -2 25 -11 9 -8 16 -13 16
-9 0 3 11 -6 25 -21 14 -15 25 -33 25 -40 0 -8 5 -14 10 -14 6 0 10 -6 10 -14
0 -8 5 -16 12 -18 16 -6 18 -35 2 -35 -8 0 -14 4 -14 9 0 4 -7 8 -15 8 -8 0
-15 5 -15 12 0 6 -3 8 -7 5 -3 -4 -12 1 -20 11 -10 11 -12 12 -8 2 4 -10 2 -9
-8 2 -8 10 -17 15 -20 11 -4 -3 -7 -1 -7 5 0 7 -7 12 -15 12 -8 0 -15 4 -15
10 0 5 -7 6 -17 3 -10 -4 -14 -2 -10 4 4 6 -4 14 -18 17 -14 4 -25 11 -25 17
0 6 -4 7 -10 4 -5 -3 -10 -1 -10 5 0 6 -5 8 -10 5 -5 -3 -10 -1 -10 4 0 6 -7
11 -15 11 -8 0 -15 5 -15 11 0 5 -4 8 -8 5 -5 -3 -18 3 -29 14 -12 10 -24 16
-27 13 -3 -4 -6 0 -6 7 0 7 -3 11 -6 7 -9 -9 -38 23 -42 47 -4 24 -10 49 -12
56 -1 3 -2 8 -1 13 0 4 -3 7 -9 7 -6 0 -9 3 -9 8 3 18 -2 33 -10 28 -4 -3 -8
2 -8 12 0 34 -3 43 -13 37 -5 -3 -10 3 -10 14 0 12 -5 21 -11 21 -5 0 -7 5 -4
10 3 6 1 10 -6 10 -7 0 -10 3 -6 6 3 4 1 12 -6 20 -30 33 -37 44 -30 44 4 0
-2 7 -13 15 -10 8 -16 15 -12 15 7 0 2 8 -45 62 -9 12 -17 25 -17 30 0 5 -4 7
-9 3 -5 -3 -12 4 -16 15 -3 11 -13 20 -21 20 -8 0 -13 4 -9 9 3 5 -4 12 -15
16 -11 3 -20 11 -20 16 0 6 -4 8 -9 5 -5 -4 -11 -1 -13 4 -4 14 -50 21 -66 11
-8 -5 -14 -21 -15 -37 -2 -43 14 -115 23 -109 5 3 7 -3 5 -15 -2 -11 0 -22 6
-25 5 -4 9 -11 9 -17 0 -7 -5 -6 -15 2 -8 6 -20 8 -26 4 -7 -4 -9 -3 -6 3 3 5
-11 18 -31 27 -20 10 -38 16 -38 15 -1 -2 -11 4 -21 14 -11 9 -23 14 -26 10
-4 -3 -7 0 -7 7 0 7 -3 10 -6 7 -4 -3 -16 -1 -28 5 -11 7 -24 11 -28 10 -5 -1
-8 3 -8 10 0 6 -3 8 -7 5 -3 -4 -12 -2 -20 4 -7 6 -13 8 -13 4 0 -4 -7 -2 -15
5 -8 7 -15 10 -15 7 0 -3 -16 1 -35 9 -19 8 -35 11 -35 8 0 -4 -6 -2 -12 3
-20 16 -146 13 -159 -4 -15 -17 -14 -76 0 -81 6 -2 9 -8 5 -13 -3 -5 0 -9 7
-9 7 0 10 -3 6 -6 -7 -7 127 -144 141 -144 5 0 12 -7 16 -15 3 -8 12 -15 21
-15 8 0 15 -4 15 -9 0 -6 18 -20 40 -32 22 -13 40 -26 40 -30 0 -4 11 -10 25
-13 14 -4 25 -11 25 -17 0 -6 5 -7 10 -4 6 3 10 1 10 -5 0 -7 6 -10 14 -7 8 3
16 -2 19 -12 3 -12 -2 -17 -17 -18 -12 -1 -37 -4 -56 -8 -19 -3 -41 -7 -47 -7
-7 -1 -13 -5 -13 -10 0 -5 -4 -6 -10 -3 -5 3 -10 1 -10 -5 0 -6 -5 -8 -10 -5
-6 3 -15 -6 -20 -21 -8 -21 -8 -29 2 -36 7 -4 9 -8 3 -8 -5 -1 8 -11 30 -22
22 -12 46 -21 52 -20 7 2 13 -2 13 -7 0 -5 9 -8 20 -6 11 2 20 0 20 -4 0 -4 6
-8 13 -8 6 -1 37 -5 67 -9 69 -10 312 -10 365 0 22 4 46 8 53 8 6 1 12 4 12 8
0 4 7 7 15 7 8 0 15 -4 15 -9 0 -5 4 -7 9 -4 5 3 14 -1 21 -9 7 -8 19 -15 26
-15 8 0 14 -4 14 -9 0 -5 11 -12 25 -15 14 -4 25 -11 25 -17 0 -6 5 -7 10 -4
6 3 10 1 10 -6 0 -7 3 -10 6 -6 3 3 13 -1 22 -9 10 -8 22 -15 27 -16 6 -1 16
-8 23 -15 8 -7 18 -11 23 -7 5 3 12 -2 15 -10 3 -9 10 -13 15 -10 5 3 9 0 9
-5 0 -6 7 -11 15 -11 8 0 15 -4 15 -10 0 -5 7 -6 17 -3 11 4 14 3 9 -5 -4 -7
3 -14 19 -18 14 -3 25 -10 25 -16 0 -5 5 -6 11 -2 7 4 10 1 7 -7 -3 -8 -14
-12 -24 -10 -10 2 -45 5 -76 5 -32 1 -58 5 -58 9 0 5 -4 5 -10 2 -5 -3 -10 -1
-10 4 0 6 -7 11 -15 11 -8 0 -15 5 -15 11 0 6 -7 8 -16 5 -8 -3 -12 -2 -9 4 3
6 -1 10 -9 10 -9 0 -16 5 -16 11 0 5 -4 7 -10 4 -5 -3 -10 -1 -10 5 0 6 -4 8
-10 5 -5 -3 -10 -1 -10 5 0 6 -4 8 -10 5 -5 -3 -10 -1 -10 5 0 6 -4 8 -10 5
-5 -3 -10 -1 -10 5 0 7 -6 10 -14 7 -7 -3 -19 0 -25 6 -10 10 -25 15 -63 19
-10 1 -18 5 -18 8 0 8 -100 9 -101 1 0 -3 -2 -14 -4 -23 -2 -10 1 -18 6 -18 4
0 6 -7 3 -15 -4 -8 -1 -15 5 -15 6 0 11 -5 11 -11 0 -6 7 -17 15 -25 8 -9 15
-13 15 -10 0 3 9 -3 21 -15 24 -24 22 -27 -12 -33 -13 -2 -24 -5 -24 -6 0 -2
-31 -7 -72 -12 -7 -1 -13 -5 -13 -10 0 -5 -4 -6 -10 -3 -5 3 -10 1 -10 -5 0
-6 -5 -8 -10 -5 -6 3 -17 0 -25 -8 -8 -9 -19 -17 -25 -19 -6 -2 -12 -17 -14
-33 -4 -33 10 -69 24 -60 5 3 15 -3 22 -13 11 -15 46 -36 56 -32 1 0 15 -6 30
-13 15 -8 35 -13 45 -12 9 2 14 -1 11 -7 -3 -5 2 -8 11 -6 10 2 20 -3 22 -9 3
-7 -1 -13 -8 -13 -16 0 -89 -77 -81 -85 3 -3 0 -5 -6 -5 -14 0 -6 -41 9 -51
21 -12 153 4 175 21 6 6 14 7 18 3 4 -4 11 -2 15 5 4 7 18 14 29 15 12 1 22 5
22 9 0 4 3 7 8 6 4 -1 20 4 35 10 16 7 33 12 38 12 5 0 9 5 9 11 0 5 5 7 10 4
6 -3 10 -2 10 3 0 6 7 13 16 16 13 5 15 1 10 -17 -3 -14 1 -31 10 -43 8 -10
12 -12 8 -4 -6 12 -5 13 7 4 14 -11 51 -5 50 9 -1 4 8 16 19 27 17 17 31 20
83 18 l62 -3 -30 -30 c-17 -16 -33 -34 -35 -40 -9 -20 -34 -44 -41 -39 -5 2
-13 -5 -19 -16 -6 -11 -8 -20 -6 -20 3 0 -6 -13 -21 -29 -18 -19 -28 -42 -30
-70 -3 -36 1 -47 27 -72 16 -17 30 -37 30 -44 0 -8 9 -17 20 -20 11 -3 20 -13
20 -21 0 -8 8 -14 17 -14 9 0 13 -3 10 -6 -3 -4 7 -19 24 -35 16 -15 26 -29
22 -32 -5 -2 -34 -3 -65 -2 -47 1 -61 5 -81 26 -13 15 -30 28 -38 31 -25 9
-47 -10 -45 -37 2 -16 -2 -25 -10 -25 -8 0 -14 5 -14 11 0 5 -5 7 -10 4 -5 -3
-10 -1 -10 5 0 6 -4 8 -10 5 -5 -3 -10 -1 -10 5 0 6 -5 8 -10 5 -6 -3 -10 -1
-10 4 0 6 -3 10 -7 10 -5 -1 -11 0 -15 1 -5 1 -11 3 -15 4 -5 1 -18 7 -30 14
-12 6 -30 13 -40 15 -10 2 -26 7 -35 11 -9 4 -21 5 -27 2 -5 -3 -11 -2 -13 4
-1 5 -29 11 -60 14 -68 4 -95 -14 -79 -55 10 -26 45 -59 62 -59 5 0 7 -5 4
-10 -3 -5 0 -10 8 -10 8 0 17 -7 20 -14 6 -15 -8 -23 -59 -32 -31 -6 -122 -51
-141 -70 -8 -7 -16 -23 -18 -34 -5 -25 14 -72 26 -65 4 3 11 0 14 -5 11 -17
78 -41 123 -44 12 0 22 -3 22 -6 0 -3 12 -7 27 -8 38 -3 38 -7 -1 -31 -19 -12
-38 -31 -41 -41 -4 -11 -11 -20 -16 -20 -6 0 -7 -4 -4 -10 3 -5 2 -10 -4 -10
-13 0 -5 -42 11 -51 16 -10 101 -1 125 14 7 5 17 5 23 2 6 -3 10 -1 10 5 0 6
4 9 9 5 5 -3 12 -1 16 5 4 6 11 8 16 5 5 -4 9 -1 9 5 0 6 4 9 9 6 5 -4 11 -1
13 4 2 6 10 12 18 14 24 5 53 19 70 33 8 7 20 14 25 15 6 0 15 8 21 17 8 10
31 16 70 17 33 2 71 5 87 7 18 3 27 0 27 -9 0 -13 -12 -18 -32 -15 -5 0 -8 -4
-8 -10 0 -5 -4 -7 -10 -4 -5 3 -10 2 -10 -3 0 -6 -12 -15 -27 -21 -16 -6 -53
-27 -83 -46 -30 -19 -71 -43 -90 -52 -19 -9 -41 -24 -48 -33 -11 -13 -12 -13
-6 0 4 8 -4 5 -18 -8 -13 -12 -27 -19 -31 -16 -4 4 -9 -1 -13 -10 -3 -9 -10
-14 -14 -11 -5 3 -11 1 -15 -5 -4 -6 -11 -8 -16 -5 -12 8 -48 16 -79 19 -14 1
-30 5 -35 8 -9 5 -270 4 -270 -1 0 -1 -21 -4 -47 -6 -26 -2 -53 -7 -59 -11 -7
-4 -28 -8 -47 -10 -20 -2 -38 -7 -41 -11 -3 -4 -10 -9 -16 -10 -16 -3 -71 -33
-60 -33 6 0 4 -4 -3 -9 -12 -7 -11 -13 2 -37 8 -16 15 -26 16 -21 0 4 10 1 23
-7 22 -15 80 -29 123 -30 14 0 20 -5 17 -13 -3 -7 -9 -10 -14 -7 -5 3 -9 0 -9
-6 0 -6 -4 -8 -10 -5 -5 3 -10 2 -10 -2 0 -9 -61 -48 -70 -46 -3 1 -9 -5 -13
-13 -5 -8 -12 -12 -18 -9 -5 4 -9 2 -9 -4 0 -5 -16 -19 -36 -32 -20 -12 -46
-32 -57 -43 -12 -12 -30 -25 -40 -29 -9 -3 -17 -14 -17 -23 0 -10 -3 -15 -6
-11 -11 10 -53 -35 -47 -51 4 -8 2 -13 -3 -10 -11 7 -35 -17 -27 -26 4 -3 2
-6 -4 -6 -5 0 -10 -6 -11 -12 0 -7 -3 -25 -5 -40 -6 -40 19 -55 89 -53 32 1
59 3 59 4 0 2 9 4 20 6 53 9 140 39 174 61 13 9 20 11 16 4 -8 -13 76 29 86
43 3 5 9 9 12 9 21 0 46 12 51 24 3 7 12 11 21 8 8 -3 15 -1 15 5 0 6 4 11 9
11 11 0 8 -22 -9 -65 -7 -16 -14 -43 -16 -59 -2 -16 -6 -31 -8 -34 -2 -2 0
-17 6 -33 8 -23 15 -28 36 -27 41 4 152 86 152 113 0 7 11 21 25 31 14 10 25
25 25 32 0 7 7 15 15 18 8 4 15 12 15 20 0 8 5 14 12 14 6 0 8 3 5 7 -4 3 1
12 11 20 11 10 12 12 2 8 -10 -4 -9 -2 3 8 9 8 17 18 17 22 0 4 9 19 20 35 11
15 17 30 13 34 -3 3 -1 6 6 6 7 0 9 4 6 10 -3 5 -2 10 4 10 6 0 7 7 4 17 -4
10 -2 14 4 10 6 -4 13 2 16 13 3 13 1 18 -6 13 -7 -4 -5 1 3 11 14 18 17 25
27 79 3 15 10 30 16 34 6 4 7 1 2 -8 -5 -8 4 -3 18 10 15 14 27 21 27 17 0 -4
13 2 29 13 16 12 34 21 39 21 6 0 12 4 14 8 2 5 39 28 83 52 44 23 87 49 96
56 9 8 19 11 22 8 4 -4 9 1 13 10 3 9 10 13 15 10 5 -3 9 -1 9 4 0 5 7 9 15 9
8 0 15 -2 15 -5 0 -11 -35 -62 -43 -62 -4 0 -6 -4 -2 -9 3 -6 -3 -14 -12 -20
-10 -6 -14 -11 -10 -11 14 0 -18 -27 -41 -34 -12 -4 -19 -12 -16 -18 4 -6 1
-9 -7 -6 -8 3 -20 -2 -27 -11 -8 -9 -10 -10 -7 -3 8 15 -92 -54 -113 -78 -12
-13 -12 -13 -6 0 7 13 5 13 -9 1 -9 -7 -14 -17 -11 -22 3 -5 2 -8 -3 -7 -11 4
-73 -59 -66 -66 4 -3 2 -6 -4 -6 -15 0 -22 -34 -11 -53 6 -12 22 -16 58 -14
28 0 50 4 50 7 0 4 6 7 13 8 6 0 22 3 34 6 22 5 22 4 8 -24 -9 -17 -15 -32
-15 -35 0 -3 0 -6 -1 -7 -6 -19 -20 -105 -22 -128 -2 -30 15 -69 33 -75 36
-12 113 17 150 56 8 9 27 24 42 33 15 10 26 22 23 26 -3 4 2 10 10 14 15 5 17
-1 18 -51 0 -13 3 -23 8 -23 4 0 6 -9 4 -20 -2 -11 0 -20 6 -20 5 0 8 -3 8 -7
-4 -23 4 -31 30 -29 27 1 45 11 49 29 1 4 8 20 16 36 8 15 17 41 20 57 2 16 5
29 6 29 5 0 18 105 24 188 4 56 8 62 34 46 31 -19 52 -5 52 36 0 19 -4 35 -8
35 -4 0 -8 11 -8 25 0 14 4 25 8 25 4 0 8 7 8 15 0 8 5 15 10 15 6 0 10 7 10
16 0 8 7 22 15 30 13 14 15 14 15 -1 0 -9 4 -14 9 -10 6 3 8 -3 6 -15 -2 -11
1 -22 6 -25 5 -4 7 -11 4 -16 -4 -5 -2 -9 2 -9 5 0 9 -8 10 -17 5 -54 9 -69
23 -83 8 -8 16 -21 18 -27 1 -7 3 -18 5 -25 3 -18 21 -37 30 -31 4 2 10 -3 13
-11 6 -15 27 -17 49 -5 6 3 30 5 55 4 25 0 48 3 51 8 3 4 21 11 40 13 65 10
79 13 89 19 16 10 12 -3 -17 -48 -15 -23 -27 -46 -28 -51 0 -10 -45 -29 -45
-19 0 3 -6 0 -13 -6 -8 -6 -17 -8 -20 -4 -4 3 -7 1 -7 -6 0 -7 -5 -9 -12 -5
-8 5 -9 0 -5 -17 4 -13 7 -30 7 -38 0 -7 6 -11 15 -8 26 11 27 -13 1 -25 -14
-6 -26 -15 -26 -20 0 -5 -4 -6 -10 -3 -5 3 -10 1 -10 -4 0 -6 -6 -10 -12 -8
-7 1 -12 -4 -10 -11 1 -8 -2 -11 -7 -8 -6 4 -27 -10 -48 -31 -20 -21 -33 -31
-28 -23 4 8 -5 2 -21 -15 -16 -16 -40 -40 -54 -54 -14 -13 -18 -20 -10 -16 8
3 4 -3 -9 -14 -13 -12 -20 -21 -17 -21 4 0 2 -9 -4 -20 -14 -25 19 -61 50 -55
11 3 29 7 39 9 10 3 33 11 49 20 26 14 31 14 36 1 3 -8 1 -15 -5 -15 -6 0 -9
-6 -6 -14 3 -8 3 -17 -1 -21 -8 -7 -9 -19 -15 -107 -3 -33 0 -58 5 -58 5 0 8
-6 6 -12 -13 -37 79 -51 112 -18 11 11 23 20 28 21 4 1 6 5 5 10 -2 5 0 8 5 7
11 -4 77 63 75 76 -2 6 5 12 15 13 13 1 18 -5 17 -20 -1 -12 7 -44 17 -72 10
-27 18 -50 18 -50 0 0 12 -2 26 -3 14 -1 32 5 40 13 9 8 12 15 8 15 -3 0 -2 6
3 13 22 28 32 88 39 257 3 70 10 128 16 131 6 4 7 12 3 19 -5 8 -4 11 2 7 12
-8 26 20 17 34 -3 5 -1 9 5 9 9 0 27 38 23 52 -1 3 4 8 11 11 9 3 12 -51 11
-238 l-1 -242 -37 -39 c-69 -75 -75 -82 -69 -88 3 -3 -2 -8 -11 -12 -9 -3 -14
-9 -12 -13 3 -4 -6 -20 -20 -36 -27 -31 -30 -39 -11 -30 6 4 5 0 -3 -7 -24
-21 -41 -58 -34 -71 4 -7 3 -8 -1 -4 -10 9 -47 -61 -39 -74 3 -5 0 -9 -7 -9
-7 0 -9 -3 -6 -7 4 -3 2 -12 -3 -19 -6 -6 -13 -21 -15 -33 -3 -12 -7 -31 -10
-44 -10 -38 -14 -104 -8 -126 3 -13 13 -21 27 -21 34 0 66 12 60 21 -3 5 -1 9
4 9 12 0 72 58 72 70 0 6 6 10 14 10 8 0 12 -9 11 -25 -2 -14 0 -25 3 -25 4 0
7 -33 8 -73 1 -66 9 -172 14 -172 2 0 10 -54 12 -82 1 -7 4 -13 8 -13 4 0 7
-6 8 -12 3 -38 27 -93 51 -117 17 -17 74 -24 83 -10 2 2 12 15 23 28 11 14 14
21 6 16 -8 -5 -6 3 5 20 10 16 19 33 21 39 3 16 14 68 18 86 2 8 4 15 5 15 6
0 23 180 24 266 1 52 5 76 13 76 7 0 10 -4 7 -9 -3 -4 0 -8 5 -8 6 0 11 -4 11
-10 0 -15 76 -91 84 -83 3 3 6 2 6 -4 0 -17 37 -22 59 -7 16 12 19 23 16 66
-4 48 -11 93 -15 93 -1 0 -3 7 -5 15 -2 8 -9 29 -16 45 -7 17 -11 36 -10 44 1
7 -2 10 -7 7 -5 -3 -9 0 -9 7 2 14 -35 91 -45 95 -5 2 -8 11 -8 19 0 9 -8 22
-17 30 -10 8 -12 11 -4 7 16 -8 -28 57 -47 69 -7 5 -10 12 -7 17 3 5 -4 14
-16 20 -11 7 -18 14 -15 17 3 4 -11 21 -31 40 l-38 33 -1 232 c0 128 1 237 4
241 7 14 85 -155 86 -186 1 -15 -1 -27 -4 -27 -3 0 -7 -11 -8 -26 -1 -14 1
-23 6 -21 4 3 7 -27 8 -66 1 -78 6 -116 16 -133 4 -6 9 -23 12 -38 6 -36 24
-56 47 -56 20 0 61 39 53 51 -2 4 0 10 5 14 5 3 8 14 6 25 -2 11 1 20 7 20 5
0 8 7 5 15 -4 8 -2 17 2 20 5 3 12 -2 15 -11 3 -8 10 -13 15 -9 5 3 13 0 17
-6 5 -8 3 -9 -7 -4 -8 4 9 -14 36 -42 28 -27 53 -47 58 -45 4 2 7 -2 7 -8 0
-6 5 -8 10 -5 6 3 10 3 10 -2 0 -12 62 -14 80 -3 11 7 15 31 16 95 1 49 -2 85
-7 85 -6 0 -8 4 -5 8 3 4 1 24 -3 44 -7 31 -6 36 8 31 9 -4 21 -10 26 -14 6
-4 13 -8 18 -8 4 -1 8 -1 10 -2 48 -15 82 -17 94 -8 20 17 16 67 -7 86 -11 10
-20 22 -20 28 0 6 -16 25 -35 42 -19 17 -35 28 -35 25 0 -4 -11 6 -24 21 -16
18 -30 26 -38 21 -7 -4 -10 -4 -6 0 8 10 -14 36 -24 29 -5 -2 -8 1 -8 6 0 6
-5 11 -10 11 -6 0 -20 9 -32 20 -12 10 -25 17 -31 13 -5 -3 -4 4 3 16 6 12 15
19 19 16 13 -7 20 30 9 49 -5 9 -26 19 -47 22 -28 5 -42 13 -52 33 -8 14 -20
30 -27 34 -7 5 -10 12 -7 17 3 5 1 11 -5 15 -6 4 -8 11 -4 16 3 5 9 7 14 4 4
-3 23 -7 41 -10 61 -9 71 -11 77 -21 9 -12 162 -14 162 -2 0 5 4 7 8 4 11 -6
44 62 37 74 -3 5 3 13 13 19 10 5 19 22 20 40 1 16 11 50 21 75 11 24 17 47
14 50 -4 3 -2 6 4 6 14 0 34 -25 26 -33 -3 -4 -1 -7 6 -7 7 0 9 -4 6 -10 -3
-5 -2 -10 3 -10 15 0 31 -55 22 -71 -5 -7 -6 -17 -4 -21 3 -4 0 -8 -5 -8 -14
0 -10 -21 8 -40 18 -19 33 -19 47 -1 8 10 13 11 18 2 7 -11 18 -120 17 -168
-1 -13 4 -23 10 -23 5 0 7 -4 4 -10 -3 -5 0 -29 6 -52 7 -24 14 -49 15 -56 1
-8 11 -23 21 -35 10 -11 12 -17 5 -13 -11 7 -11 4 -1 -12 28 -45 94 -5 98 61
4 59 6 67 18 71 7 3 13 -1 13 -9 0 -7 15 -24 33 -36 17 -13 36 -29 40 -37 9
-13 56 -37 70 -34 4 1 7 -2 7 -7 0 -15 63 -8 81 9 21 20 18 141 -4 178 -5 6
-5 12 -1 12 3 0 -1 10 -9 23 -22 34 -3 63 26 39 17 -14 99 -24 123 -15 19 7
15 53 -6 71 -13 12 -13 13 0 7 8 -4 6 2 -5 12 -11 10 -33 32 -49 48 -16 17
-25 23 -21 15 4 -8 -5 -1 -20 15 -14 17 -23 23 -19 15 4 -8 -5 -3 -21 13 -15
15 -34 27 -41 27 -8 0 -14 5 -14 10 0 6 -7 10 -15 10 -8 0 -15 5 -15 11 0 5
-4 8 -9 5 -5 -3 -14 1 -21 9 -7 8 -21 15 -32 15 -10 0 -17 4 -14 8 3 5 -4 14
-14 22 -10 8 -17 17 -14 22 3 4 0 8 -6 8 -6 0 -9 4 -6 9 3 5 -1 12 -10 15 -8
3 -12 10 -9 16 3 5 2 10 -3 10 -5 0 -12 9 -15 19 -3 14 -1 18 9 14 8 -3 14 -9
14 -15 0 -5 4 -7 9 -3 5 3 16 -2 24 -10 9 -8 20 -15 26 -15 6 0 11 -4 11 -10
0 -5 3 -9 8 -8 12 3 62 -25 62 -34 0 -5 5 -6 10 -3 6 3 10 1 10 -5 0 -6 4 -9
9 -6 5 3 12 -1 15 -10 3 -8 10 -12 16 -9 5 3 10 1 10 -5 0 -6 4 -9 8 -6 5 3
18 -3 29 -14 12 -10 24 -16 27 -13 3 4 6 1 6 -6 0 -7 5 -9 10 -6 6 3 10 1 10
-5 0 -7 7 -9 16 -6 8 3 12 2 9 -4 -3 -6 1 -10 9 -10 9 0 16 -4 16 -10 0 -5 6
-10 14 -10 13 0 28 -25 32 -55 1 -5 3 -13 4 -17 1 -5 3 -11 4 -15 1 -5 7 -18
14 -29 6 -12 8 -24 5 -28 -3 -3 -1 -6 6 -6 7 0 10 -3 7 -8 -2 -4 9 -27 25 -50
16 -24 24 -40 17 -36 -7 4 -5 -2 5 -13 9 -11 17 -23 17 -27 0 -4 6 -14 13 -21
28 -33 37 -45 32 -45 -7 0 12 -24 38 -48 9 -9 17 -22 17 -30 0 -7 5 -10 10 -7
6 3 10 2 10 -4 0 -15 63 -81 78 -81 7 0 15 -7 19 -16 3 -8 11 -13 19 -10 7 3
14 0 16 -6 3 -8 11 -9 24 -3 10 4 22 8 25 7 11 -2 7 92 -4 113 -6 11 -10 28
-8 37 1 10 -3 18 -10 18 -7 0 -9 3 -6 7 4 3 2 12 -5 20 -15 18 10 14 30 -5 8
-7 18 -9 24 -6 7 4 8 2 4 -4 -5 -8 0 -12 13 -12 12 0 21 -5 21 -11 0 -5 4 -8
9 -5 5 4 11 2 13 -4 2 -6 14 -12 28 -15 14 -3 26 -9 28 -15 2 -6 8 -8 13 -4 5
3 9 0 9 -6 0 -7 6 -10 14 -7 8 3 16 1 18 -4 2 -5 13 -11 26 -12 12 0 22 -4 22
-8 0 -7 60 -21 71 -16 3 1 13 -4 22 -11 9 -8 21 -11 26 -8 5 4 12 2 15 -2 9
-15 127 -10 133 5 3 7 10 10 15 7 7 -4 8 10 5 41 -4 27 -12 52 -19 56 -7 5
-13 12 -13 16 0 4 -29 37 -64 73 -36 36 -61 58 -57 50 4 -9 2 -8 -7 3 -8 9
-20 17 -26 17 -7 0 -9 5 -6 10 3 6 -1 10 -9 10 -9 0 -16 5 -16 11 0 5 -4 8 -9
5 -5 -3 -12 1 -15 10 -3 8 -10 13 -14 10 -5 -3 -14 4 -22 14 -8 10 -17 17 -22
14 -4 -3 -8 -1 -8 4 0 5 -12 17 -26 27 -18 12 -24 13 -19 4 3 -8 0 -6 -8 3 -8
10 -17 15 -20 11 -4 -3 -7 -1 -7 6 0 7 -4 9 -10 6 -5 -3 -10 0 -10 8 0 7 6 14
13 14 12 0 78 11 107 18 8 2 19 4 23 4 5 1 5 5 2 11 -3 5 0 7 9 4 8 -3 19 3
25 14 11 21 11 63 0 56 -4 -2 -9 3 -13 11 -3 8 -15 15 -26 15 -11 0 -20 4 -20
10 0 5 -3 9 -7 8 -5 -1 -27 4 -51 11 -23 6 -47 9 -52 6 -5 -3 -11 -1 -14 3 -7
12 -45 15 -216 16 -149 1 -215 -5 -250 -24 -15 -8 -20 -8 -20 1 0 7 -3 9 -7 6
-3 -4 -18 3 -31 15 -14 13 -22 16 -18 8 5 -9 2 -8 -7 2 -8 10 -17 15 -20 11
-4 -3 -7 -1 -7 6 0 7 -5 9 -10 6 -6 -3 -13 1 -16 9 -3 9 -10 13 -15 10 -5 -3
-9 -1 -9 4 0 6 -11 13 -25 16 -14 4 -25 11 -25 17 0 6 -5 7 -10 4 -6 -3 -10
-1 -10 5 0 6 -4 8 -10 5 -6 -3 -10 -2 -10 3 0 5 -18 17 -40 27 -22 10 -40 21
-40 25 0 8 -39 23 -52 21 -5 -1 -8 3 -8 8 0 5 -9 13 -20 16 -29 9 -15 25 18
18 15 -3 51 -6 80 -7 31 -2 61 -9 72 -18 10 -9 21 -14 24 -11 3 4 6 1 6 -5 0
-7 6 -12 14 -12 7 0 19 -7 26 -15 7 -8 16 -12 21 -9 5 3 9 0 9 -6 0 -6 5 -8
10 -5 6 3 10 1 10 -5 0 -6 5 -8 10 -5 6 3 10 1 10 -4 0 -6 3 -10 8 -9 4 1 17
-3 29 -10 12 -7 33 -13 47 -14 15 -1 26 -6 26 -11 0 -5 11 -7 25 -5 13 3 23 2
20 -1 -2 -4 14 -7 36 -7 21 0 40 2 40 5 11 53 7 64 -43 112 -47 46 -49 57 -5
50 4 0 7 2 7 7 0 4 10 7 23 8 28 1 55 8 90 22 16 7 30 12 33 12 2 0 13 9 25
21 22 22 34 59 18 59 -6 0 -7 4 -4 10 3 5 -4 20 -16 32 -12 13 -19 16 -15 8 5
-9 2 -9 -7 2 -8 10 -17 15 -20 11 -4 -3 -7 -2 -7 4 0 6 -7 14 -16 17 -10 4
-13 2 -8 -7 6 -9 5 -9 -8 0 -8 7 -19 9 -23 5 -5 -4 -5 -1 -1 6 8 13 6 14 -34
16 -14 1 -33 6 -43 12 -17 10 -17 11 3 34 11 13 20 20 20 17 0 -4 11 3 25 15
13 11 22 25 19 30 -3 4 -1 8 4 8 15 0 8 55 -8 61 -20 8 -145 -1 -145 -11 0 -1
-7 -3 -15 -5 -8 -2 -31 -10 -51 -19 -20 -8 -39 -12 -43 -9 -3 4 -6 1 -6 -5 0
-7 -3 -11 -7 -10 -5 1 -32 -10 -61 -25 -30 -15 -57 -27 -61 -27 -4 0 -5 14 -3
31 3 21 1 30 -6 25 -6 -3 -12 0 -15 6 -3 10 -8 9 -22 -2 -17 -13 -18 -13 -10
0 5 8 -5 2 -23 -15 -34 -32 -40 -41 -19 -29 7 4 9 3 4 -2 -5 -5 -37 -9 -72 -9
-72 0 -74 7 -18 64 18 18 33 37 33 42 0 5 3 8 8 8 24 -4 34 3 29 21 -3 11 -1
18 4 14 5 -3 9 2 9 10 0 9 4 16 10 16 16 0 37 52 35 86 -2 19 -14 43 -34 63
-17 17 -31 38 -31 46 0 8 -4 15 -8 15 -11 0 -52 35 -52 44 0 4 -15 20 -32 37
l-32 29 67 0 c66 0 107 -17 107 -45 0 -6 16 -12 35 -13 35 -3 39 2 38 44 0 6
6 11 13 11 8 0 14 -5 14 -10 0 -6 3 -7 6 -4 4 4 20 -3 35 -14 16 -11 29 -17
29 -13 0 3 7 1 15 -6 8 -6 20 -8 27 -4 7 4 10 3 6 -1 -9 -10 90 -47 103 -39 5
3 9 1 9 -3 0 -10 30 -15 83 -14 69 1 70 1 64 38 -6 32 -60 97 -71 85 -3 -3 -8
3 -12 12 -3 9 -13 16 -22 16 -22 0 -8 11 20 15 23 4 59 12 68 15 3 1 8 2 13 1
4 0 7 4 7 10 0 5 5 7 10 4 6 -3 10 -1 10 5 0 6 5 8 11 5 6 -4 22 4 36 16 13
13 28 23 31 22 4 -1 6 5 4 14 -2 8 1 12 7 8 6 -3 11 -3 12 2 0 4 2 16 4 26 2
9 -2 17 -8 17 -5 0 -8 3 -4 6 8 9 -44 55 -54 48 -5 -3 -9 0 -9 6 0 6 -4 9 -9
5 -5 -3 -13 0 -16 6 -4 5 -13 8 -21 5 -8 -3 -14 -1 -14 5 0 6 -9 8 -20 4 -11
-4 -20 -2 -20 4 0 6 -3 10 -7 10 -5 -1 -21 -1 -37 0 l-30 1 47 44 c26 23 44
46 40 50 -3 3 -2 6 4 6 8 0 11 34 5 62 -2 7 -81 3 -117 -5 -11 -3 -26 -6 -33
-6 -7 -1 -11 -5 -8 -10 4 -5 -2 -8 -11 -7 -10 2 -27 -3 -39 -11 -11 -7 -24
-10 -27 -6 -4 3 -7 1 -7 -5 0 -7 -7 -12 -15 -12 -8 0 -15 -5 -15 -11 0 -5 -4
-8 -9 -5 -5 3 -14 -1 -21 -9 -7 -8 -16 -12 -21 -9 -5 3 -9 0 -9 -6 0 -6 -4 -9
-9 -5 -6 3 -14 -3 -20 -12 -6 -10 -11 -13 -11 -8 0 6 -4 4 -8 -2 -10 -15 -172
-27 -172 -13 0 6 7 10 16 10 8 0 13 4 10 8 -2 4 5 9 17 9 12 1 27 9 33 17 6 9
14 13 17 9 4 -3 7 -1 7 6 0 7 5 9 10 6 6 -3 10 -1 10 5 0 6 5 8 10 5 6 -3 10
-2 10 4 0 5 10 13 22 17 12 3 30 15 41 25 11 10 24 16 29 13 4 -3 8 0 8 6 0 6
5 8 10 5 6 -3 10 -2 10 4 0 5 10 13 21 16 12 4 40 20 63 35 22 16 44 26 48 24
5 -3 8 -1 8 5 0 5 8 8 18 6 9 -2 17 -4 17 -5 0 -2 30 -8 80 -17 120 -21 475 9
475 40 0 6 3 7 7 4 3 -4 17 0 30 8 13 9 23 13 23 10 0 -3 6 0 13 7 12 10 15
38 9 71 -1 5 -6 5 -12 2 -6 -3 -10 -1 -10 5 0 6 -4 8 -10 5 -5 -3 -10 -1 -10
5 0 7 -7 10 -15 7 -8 -4 -17 -2 -21 4 -3 6 -12 8 -20 5 -7 -3 -16 -1 -19 5 -4
5 -17 7 -29 5 -13 -2 -29 0 -36 4 -10 6 -7 10 13 15 15 4 27 11 27 17 0 5 4 7
9 4 5 -3 12 1 15 10 3 8 10 13 15 10 5 -3 12 1 15 10 3 8 10 13 15 10 5 -3 12
1 15 10 3 8 10 13 15 10 5 -3 12 1 15 10 3 8 10 13 15 10 5 -3 11 1 15 9 3 8
11 15 17 15 6 0 23 12 37 28 13 15 21 20 16 12 -4 -8 10 3 31 25 22 22 53 53
70 69 16 15 23 25 15 21 -8 -5 -5 2 8 14 24 24 24 22 27 71 1 20 -3 40 -9 46
-12 11 -146 15 -146 3 0 -4 -8 -6 -17 -4 -10 1 -24 -2 -30 -8 -7 -5 -13 -7
-13 -3 0 4 -13 0 -30 -9 -16 -9 -30 -13 -30 -9 0 4 -6 1 -13 -5 -8 -6 -17 -8
-20 -4 -4 3 -7 1 -7 -6 0 -7 -4 -9 -10 -6 -5 3 -10 2 -10 -4 0 -6 -7 -8 -15
-5 -8 4 -15 1 -15 -6 0 -6 -4 -8 -10 -5 -5 3 -10 1 -10 -4 0 -6 -6 -11 -13
-11 -19 0 -67 -24 -67 -33 0 -5 -4 -5 -10 -2 -5 3 -10 1 -10 -5 0 -6 -4 -8
-10 -5 -5 3 -10 3 -10 -2 0 -4 -11 -13 -25 -19 -23 -11 -24 -10 -23 12 1 13 7
24 12 24 5 0 7 3 4 6 -4 3 0 20 7 37 10 26 13 76 6 120 -2 13 -73 1 -82 -14
-5 -8 -9 -10 -9 -5 0 5 -8 -1 -19 -12 -10 -12 -23 -22 -29 -22 -15 0 -33 -35
-24 -46 4 -5 3 -6 -2 -2 -9 8 -56 -35 -56 -52 0 -5 -5 -10 -12 -10 -6 0 -8 -3
-5 -7 4 -3 -2 -12 -13 -20 -11 -8 -20 -21 -20 -29 0 -8 -4 -14 -10 -14 -5 0
-10 -7 -10 -15 0 -8 -5 -15 -11 -15 -5 0 -7 -5 -4 -10 3 -6 -1 -13 -9 -16 -9
-3 -13 -10 -10 -15 3 -5 0 -9 -6 -9 -6 0 -8 -4 -5 -10 3 -5 1 -10 -5 -10 -6 0
-8 -4 -5 -10 3 -5 1 -10 -4 -10 -6 0 -11 -6 -11 -13 0 -7 -9 -31 -19 -53 -11
-21 -17 -42 -14 -46 2 -5 0 -8 -5 -8 -5 0 -9 -6 -10 -12 -3 -49 -34 -94 -54
-82 -5 3 -8 0 -8 -6 0 -6 -5 -8 -10 -5 -6 3 -13 -1 -16 -9 -3 -9 -10 -14 -14
-11 -5 3 -15 -1 -23 -9 -8 -8 -17 -12 -21 -9 -3 4 -6 2 -6 -4 0 -9 -50 -37
-59 -33 -2 1 -7 -2 -10 -7 -13 -18 -54 -48 -46 -33 7 12 5 12 -11 -1 -10 -9
-29 -20 -42 -24 -12 -3 -20 -11 -17 -16 4 -5 -3 -9 -14 -9 -12 0 -21 -5 -21
-11 0 -5 -4 -7 -10 -4 -5 3 -10 2 -10 -3 0 -5 -6 -9 -13 -9 -8 0 -14 6 -14 14
0 7 3 13 7 13 10 0 62 79 65 99 1 9 8 16 16 16 25 0 108 48 102 58 -4 6 0 8
10 4 10 -3 17 -2 17 3 0 6 6 10 13 10 7 0 19 9 27 19 7 11 17 18 22 15 4 -3 8
0 8 6 0 6 8 14 18 17 22 9 66 53 77 78 11 27 15 65 7 67 -28 6 -112 4 -112 -3
0 -5 -6 -6 -14 -3 -8 3 -17 0 -21 -5 -3 -6 -11 -9 -16 -5 -6 4 -6 11 2 20 6 8
8 14 4 14 -4 0 -1 7 6 17 8 9 13 18 12 20 -2 1 -3 4 -2 6 16 52 21 139 9 168
-11 26 -17 29 -49 27 -39 -2 -99 -30 -118 -56 -7 -9 -13 -12 -13 -8 0 4 -18
-11 -40 -34 -22 -23 -40 -40 -41 -38 -1 5 -8 50 -13 78 -6 42 -10 53 -28 71
-14 15 -23 17 -43 9 -15 -6 -23 -14 -20 -20 3 -5 1 -10 -5 -10 -6 0 -8 -4 -5
-10 3 -5 1 -10 -5 -10 -6 0 -8 -4 -5 -10 3 -5 2 -10 -3 -10 -8 0 -10 -6 -14
-50 -1 -11 -6 -20 -10 -20 -4 0 -7 -8 -7 -17 0 -10 -3 -34 -6 -53 -4 -29 -12
-121 -14 -178 -1 -10 -6 -10 -22 -2 -11 7 -32 9 -45 6 -21 -6 -23 -11 -19 -38
3 -17 11 -40 17 -51 8 -16 7 -22 -6 -29 -9 -5 -14 -13 -11 -19 4 -5 1 -9 -5
-9 -6 0 -8 -4 -5 -10 3 -5 1 -10 -5 -10 -6 0 -8 -4 -5 -10 3 -5 1 -10 -5 -10
-6 0 -9 -4 -6 -9 3 -5 -2 -12 -11 -15 -10 -4 -14 -4 -11 0 4 3 1 19 -8 35 -8
16 -12 29 -9 29 3 0 -1 12 -8 28 -7 15 -12 35 -9 45 2 11 -6 28 -17 38 -12 11
-22 26 -22 34 -2 24 -4 29 -16 50 -7 11 -13 16 -13 10 0 -5 -4 -4 -9 4 -9 15
-58 24 -65 12 -3 -4 -19 -6 -37 -5 -18 1 -44 -2 -58 -8 -14 -5 -35 -11 -46
-13 -11 -1 -40 -6 -65 -10 -35 -5 -41 -4 -27 5 9 6 15 15 12 21 -4 5 -1 9 6 9
7 0 9 3 6 7 -4 3 1 12 11 20 11 10 12 12 2 8 -10 -4 -9 -2 3 8 9 8 17 20 17
26 0 7 4 10 9 6 5 -3 12 -1 15 4 3 5 15 7 26 4 12 -3 20 0 20 6 0 7 5 9 10 6
6 -3 11 -1 11 4 1 6 2 17 3 24 2 18 -22 40 -39 33 -9 -3 -12 0 -8 9 3 8 9 13
13 10 5 -3 13 3 19 12 6 10 11 14 11 8 0 -5 5 -3 10 5 5 8 14 15 19 15 6 0 17
9 26 20 9 11 14 13 10 5 -4 -8 3 -4 14 10 11 14 21 22 21 18 0 -4 29 20 64 55
35 34 62 64 60 66 -2 2 4 10 14 18 10 9 11 11 2 7 -12 -6 -13 -5 -3 7 16 20
12 59 -7 60 -49 4 -103 -6 -108 -20 -2 -6 -10 -7 -18 -4 -8 3 -14 0 -14 -7 0
-6 -4 -9 -9 -5 -5 3 -6 17 -2 33 4 15 6 33 4 40 -3 6 0 12 5 12 5 0 9 35 9 77
0 59 -4 81 -16 91 -12 10 -12 12 -1 6 10 -5 12 -4 5 4 -12 13 -65 24 -65 13 0
-3 -9 -7 -21 -8 -11 -1 -30 -12 -41 -25 -11 -13 -25 -23 -31 -23 -7 -1 -11 -6
-10 -13 2 -7 -4 -12 -12 -12 -14 0 -20 -13 -15 -35 1 -5 -2 -7 -6 -3 -4 4 -15
-2 -25 -14 -17 -19 -24 -17 -20 5 0 4 -3 7 -8 7 -4 0 -7 11 -6 25 2 14 -1 27
-6 31 -5 3 -7 9 -5 13 6 9 -35 55 -51 58 -7 2 -13 -2 -13 -7 0 -6 -7 -10 -16
-10 -8 0 -12 -4 -9 -10 3 -5 1 -10 -6 -10 -7 0 -10 -3 -7 -6 4 -3 1 -20 -7
-37 -7 -18 -11 -42 -10 -54 1 -13 -1 -23 -5 -23 -7 0 -12 -66 -14 -186 -1 -48
-6 -87 -13 -96 -7 -8 -10 -18 -6 -21 3 -4 1 -7 -6 -7 -7 0 -9 -4 -6 -10 3 -5
1 -10 -5 -10 -6 0 -8 -4 -5 -10 3 -5 1 -10 -5 -10 -6 0 -9 -3 -6 -8 2 -4 -2
-16 -10 -27 -18 -24 -16 -42 -18 230 l-1 230 40 41 c22 23 47 51 55 64 8 12
21 28 28 36 6 7 12 16 12 19 0 4 9 20 21 36 11 16 17 29 13 29 -4 0 0 6 9 13
9 6 18 24 19 39 1 15 5 25 9 22 7 -4 22 34 20 49 -1 4 4 7 10 7 5 0 8 4 4 9
-3 5 0 13 6 16 5 4 8 13 5 21 -3 8 -1 14 4 14 6 0 9 3 9 8 -1 4 0 10 1 15 1 4
4 12 5 17 1 6 3 11 4 13 2 1 4 13 6 27 2 14 6 37 9 53 2 15 0 41 -6 57 -9 26
-13 29 -36 23 -34 -8 -103 -53 -97 -63 3 -4 -6 -16 -20 -26 -13 -10 -22 -21
-19 -25 2 -4 0 -10 -6 -14 -9 -6 -13 39 -13 148 0 20 -3 37 -7 37 -4 0 -6 17
-4 37 1 21 0 42 -4 47 -3 5 -6 23 -8 40 -1 17 -5 42 -8 56 -3 14 -8 35 -10 47
-3 12 -9 30 -15 41 -6 11 -7 22 -4 26 3 3 1 6 -6 6 -7 0 -9 5 -6 10 3 6 1 10
-6 10 -7 0 -10 3 -6 6 11 12 -25 38 -57 40 -23 2 -36 -4 -53 -24z m-484 -1774
c-7 -17 -17 -24 -29 -21 -26 7 -19 37 10 44 32 7 33 6 19 -23z m1108 7 c9 -20
7 -22 -14 -22 -26 0 -37 11 -30 31 8 20 32 15 44 -9z m-120 -20 c6 -15 6 -22
-1 -23 -11 -1 -61 -10 -106 -18 -14 -3 -36 -7 -50 -9 -14 -2 -36 -7 -49 -9
-13 -3 -28 -3 -33 0 -13 8 26 43 54 48 13 3 23 5 23 6 0 2 30 6 83 11 17 2 32
6 32 9 0 16 38 3 47 -15z m-827 2 c8 -3 22 -5 30 -6 8 0 31 -3 50 -7 19 -3 42
-7 50 -9 8 -1 14 -8 13 -14 -2 -6 2 -11 7 -11 6 0 10 -7 10 -16 0 -8 -4 -13
-9 -10 -12 8 -79 20 -113 20 -14 1 -24 4 -22 8 3 4 -4 6 -13 6 -10 -1 -35 2
-55 6 -28 5 -36 11 -35 26 1 17 7 19 37 16 19 -2 42 -6 50 -9z m-207 -80 c14
13 6 -27 -12 -70 -11 -25 -17 -48 -14 -51 4 -3 1 -6 -6 -6 -7 0 -10 -4 -6 -9
3 -5 0 -13 -6 -16 -5 -4 -8 -13 -5 -21 3 -8 1 -14 -4 -14 -6 0 -9 -3 -8 -7 0
-5 -3 -19 -9 -33 -10 -23 -10 -23 -19 -5 -8 18 -9 30 -5 58 0 4 1 9 1 12 0 3
7 19 15 35 9 17 13 30 11 30 -3 0 1 12 9 27 8 15 12 30 9 35 -3 4 0 8 5 8 6 0
10 3 10 8 -4 25 2 34 14 23 8 -6 17 -8 20 -4z m1193 -5 c-3 -2 1 -17 9 -32 8
-15 11 -30 8 -34 -4 -3 0 -6 7 -6 7 0 11 -3 7 -6 -3 -4 0 -19 9 -35 8 -16 12
-29 8 -29 -4 0 -1 -7 6 -15 7 -8 9 -15 5 -15 -4 0 -3 -6 2 -12 6 -9 5 -21 -3
-37 l-12 -23 -15 33 c-24 56 -30 73 -28 87 1 6 -3 12 -9 12 -6 0 -9 4 -5 9 3
5 1 12 -5 16 -5 3 -10 17 -10 31 0 13 -4 24 -10 24 -5 0 -9 5 -7 12 4 21 21
36 35 31 7 -3 11 -8 8 -11z m-1022 -28 c22 -1 41 -3 41 -4 0 -4 43 -11 68 -12
15 -1 27 -5 27 -8 0 -4 10 -6 23 -6 12 1 27 -2 33 -6 7 -5 16 -8 20 -7 5 1 30
-1 56 -5 43 -7 46 -10 37 -27 -5 -10 -7 -19 -5 -19 3 0 -3 -20 -14 -44 -10
-24 -16 -47 -13 -50 4 -3 1 -6 -6 -6 -7 0 -10 -3 -8 -7 3 -5 0 -19 -6 -33 -5
-14 -11 -29 -12 -35 -2 -5 -9 -23 -16 -40 -14 -34 -18 -46 -20 -62 0 -5 -6
-14 -12 -22 -10 -12 -9 -13 2 -6 9 5 7 -2 -5 -17 -10 -14 -26 -24 -34 -23 -8
2 -15 4 -15 6 0 1 -9 3 -20 4 -11 2 -38 7 -60 11 -22 4 -50 7 -62 7 -13 -1
-23 3 -23 7 0 7 -10 9 -82 13 -21 1 -38 6 -38 10 0 4 -6 7 -12 6 -40 -5 -54 2
-54 26 0 14 4 25 8 25 4 0 7 3 6 8 -2 10 15 66 41 130 12 30 19 57 16 62 -3 4
2 13 10 20 8 7 12 16 9 21 -3 5 0 9 7 9 7 0 10 3 6 6 -3 4 0 19 9 35 8 16 11
29 7 30 -5 0 1 4 12 8 11 5 24 6 29 3 4 -2 27 -6 50 -8z m903 9 c-4 -3 0 -18
9 -34 8 -16 12 -29 8 -29 -4 0 0 -7 7 -17 8 -9 13 -17 11 -17 -2 -1 2 -14 8
-31 7 -16 13 -37 15 -45 2 -8 4 -16 5 -17 2 -2 3 -6 5 -10 1 -5 8 -21 15 -38
7 -16 12 -35 11 -42 -1 -6 3 -14 9 -18 5 -3 10 -17 10 -31 0 -13 4 -24 10 -24
17 0 0 -26 -18 -27 -17 -2 -34 -5 -102 -18 -37 -7 -51 -9 -115 -19 -48 -8 -80
-14 -80 -16 0 -1 -17 -3 -37 -6 -30 -3 -40 1 -48 16 -6 11 -8 20 -5 20 4 0 3
6 -2 13 -4 6 -8 14 -9 17 -2 10 -16 45 -23 60 -5 9 -12 30 -16 48 -3 18 -11
32 -17 32 -6 0 -8 7 -5 15 4 8 2 17 -4 20 -5 4 -7 11 -4 16 4 5 2 9 -4 9 -6 0
-8 6 -5 14 3 8 0 17 -5 21 -6 3 -9 11 -6 16 4 5 2 9 -3 9 -15 0 -20 34 -8 45
6 6 22 11 36 13 25 3 50 8 93 17 12 2 38 7 57 9 19 3 47 8 63 11 15 3 39 7 53
10 15 2 28 5 29 7 2 2 18 4 36 5 17 1 29 0 26 -4z m-644 -559 c3 -16 0 -21
-10 -17 -7 3 -13 9 -13 15 0 5 -4 6 -10 3 -5 -3 -7 0 -4 8 8 22 32 16 37 -9z
m331 17 c3 -5 0 -14 -8 -20 -10 -9 -15 -8 -19 3 -9 22 15 37 27 17z m566 -25
c0 -7 14 -23 30 -36 17 -13 30 -28 30 -35 0 -7 14 -24 32 -39 17 -14 28 -26
24 -26 -4 0 10 -17 31 -37 21 -20 31 -33 23 -29 -8 5 1 -6 19 -24 38 -34 47
-56 25 -64 -8 -3 -14 -13 -14 -21 0 -9 -4 -13 -10 -10 -5 3 -10 1 -10 -4 0
-12 -40 -59 -82 -100 -16 -14 -28 -34 -28 -44 0 -10 -4 -16 -9 -13 -5 3 -17
-6 -26 -21 -10 -15 -29 -38 -42 -51 l-24 -24 -20 21 c-11 11 -17 21 -14 21 3
0 0 6 -7 14 -7 8 -16 12 -20 9 -5 -2 -8 1 -8 7 0 6 -6 17 -12 25 -7 7 -24 28
-38 45 -14 18 -42 50 -62 71 -21 22 -35 39 -31 39 3 0 -4 8 -15 19 -23 19 -30
51 -12 51 5 0 9 4 7 9 -1 5 11 20 26 35 15 14 24 26 20 26 -4 0 10 16 32 36
22 20 33 33 25 29 -8 -4 0 6 18 22 17 16 32 33 32 39 0 5 9 16 20 24 11 8 20
20 20 28 0 7 4 11 9 7 5 -3 12 4 16 15 5 16 10 18 26 10 10 -6 19 -17 19 -24z
m-1450 14 c8 -5 12 -10 8 -10 -5 0 0 -8 10 -18 9 -11 20 -17 25 -15 4 2 7 -3
7 -11 0 -9 5 -16 10 -16 6 0 9 -6 8 -12 -2 -7 3 -12 10 -10 6 1 12 -4 12 -12
0 -8 7 -17 16 -20 8 -3 13 -10 10 -15 -3 -4 8 -19 24 -31 17 -13 30 -27 30
-32 0 -6 14 -23 31 -39 17 -16 27 -29 23 -29 -5 0 -1 -5 9 -11 16 -9 15 -13
-13 -39 -16 -15 -30 -31 -30 -36 0 -4 -14 -20 -32 -36 -17 -15 -28 -28 -23
-28 4 0 -5 -13 -21 -29 -44 -45 -59 -65 -56 -74 1 -5 -2 -6 -7 -3 -5 3 -15 -2
-22 -11 -12 -14 -12 -16 1 -8 8 4 6 -1 -5 -12 -34 -32 -48 -32 -82 4 -17 18
-29 33 -25 33 3 0 -3 8 -14 19 -10 10 -30 33 -44 51 -14 18 -42 50 -62 71 -20
20 -34 40 -31 42 3 3 -4 12 -16 19 -23 14 -28 38 -9 38 6 0 8 3 5 7 -4 3 2 12
13 20 11 8 20 21 20 29 0 8 5 12 10 9 6 -3 10 -2 10 4 0 6 11 21 25 35 14 14
25 28 25 31 0 3 12 19 28 34 46 49 92 105 92 113 0 11 12 10 30 -2z m-166 -37
c3 -8 1 -11 -4 -8 -6 3 -10 2 -10 -3 0 -9 -24 -38 -85 -104 -14 -15 -25 -30
-25 -34 0 -7 -40 -44 -48 -44 -3 0 -2 3 1 7 4 3 2 12 -4 19 -8 10 -3 21 21 44
17 16 28 30 25 30 -3 0 5 11 19 23 14 13 22 27 18 31 -4 4 0 6 8 4 8 -1 14 2
15 9 0 15 33 40 51 40 7 0 16 -7 18 -14z m1806 -13 c11 -11 17 -20 14 -20 -3
0 11 -16 30 -35 20 -19 33 -35 30 -35 -4 0 4 -10 17 -23 24 -23 38 -54 20 -43
-5 4 -11 1 -13 -6 -3 -9 -9 -8 -22 5 -10 9 -14 17 -10 17 3 0 -11 16 -32 36
-22 20 -32 33 -24 29 8 -4 0 6 -17 23 -18 17 -33 35 -33 41 0 5 -5 13 -12 17
-7 5 -8 2 -3 -7 5 -8 4 -10 0 -6 -5 4 -10 14 -11 21 -3 20 42 10 66 -14z
m-2030 -250 c-6 -11 -16 -17 -23 -14 -15 5 -19 34 -5 34 5 0 6 5 2 11 -4 8 0
8 15 0 17 -10 19 -16 11 -31z m1442 12 c-7 -2 -10 -8 -7 -13 4 -5 -1 -6 -9 -3
-9 3 -16 9 -16 13 0 14 12 20 28 13 10 -4 12 -7 4 -10z m776 12 c10 -3 10 -9
2 -24 -10 -18 -11 -19 -30 -3 -11 10 -20 20 -20 24 0 7 29 9 48 3z m-1444 -18
c-3 -8 -12 -12 -20 -9 -21 8 -17 23 6 23 13 0 18 -5 14 -14z m-699 -66 c-4 -6
8 -25 27 -42 18 -17 32 -35 31 -40 -2 -4 4 -8 12 -8 8 0 14 -3 13 -8 -3 -8 15
-32 45 -60 9 -9 17 -22 17 -28 0 -18 -33 -11 -54 11 -10 11 -22 19 -28 17 -5
-1 -8 4 -6 13 2 8 -15 31 -37 51 -22 20 -33 34 -25 30 8 -4 5 1 -7 12 -27 23
-27 28 -10 47 14 16 31 20 22 5z m2065 -4 c9 -12 7 -18 -9 -33 -12 -9 -21 -21
-21 -24 0 -9 -35 -51 -81 -98 -43 -43 -83 -51 -66 -14 5 12 14 20 18 17 4 -2
16 8 26 23 10 15 26 36 36 45 11 10 16 22 11 29 -4 7 -3 9 3 6 11 -7 44 28 35
38 -4 4 0 5 8 3 8 -1 14 3 13 10 -4 16 12 15 27 -2z m-1198 -211 c-5 -28 -17
-33 -26 -10 -4 11 12 30 30 35 1 0 -1 -11 -4 -25z m332 -1 c3 -8 1 -14 -4 -14
-6 0 -13 -1 -17 -2 -3 -2 -7 7 -8 19 -2 23 20 21 29 -3z m-393 -139 c5 3 6 -1
3 -10 -4 -8 -1 -21 5 -29 6 -7 8 -16 4 -19 -3 -4 -2 -7 4 -7 9 0 28 -54 24
-72 0 -5 4 -8 11 -8 6 0 9 -3 5 -6 -3 -4 0 -19 9 -35 8 -16 12 -29 8 -29 -4 0
-1 -7 6 -15 7 -8 9 -15 5 -15 -5 0 -1 -8 8 -18 10 -10 14 -21 11 -25 -3 -3 -2
-12 2 -19 24 -38 1 -58 -68 -60 -15 -1 -26 -4 -24 -7 2 -3 -10 -7 -27 -7 -37
-2 -89 -10 -184 -30 -51 -10 -68 -10 -80 -1 -7 5 -11 13 -8 17 3 4 -2 13 -10
20 -7 6 -12 17 -9 24 3 7 -2 26 -11 42 -8 16 -15 37 -15 46 0 9 -5 20 -10 23
-6 4 -8 10 -5 15 3 5 1 11 -5 15 -6 4 -8 11 -5 16 4 5 1 9 -5 9 -6 0 -8 5 -5
10 3 6 1 10 -5 10 -7 0 -10 6 -7 14 3 8 3 17 -1 21 -4 4 -8 11 -8 16 -1 5 -3
11 -4 14 -1 3 -4 10 -5 15 -1 6 -3 11 -5 13 -9 12 -4 33 9 34 9 1 30 5 46 8
17 3 41 8 55 10 14 2 36 6 50 9 71 14 97 18 118 18 12 0 22 4 22 8 0 4 10 7
23 6 12 -1 31 1 42 5 15 5 21 2 23 -12 2 -11 8 -17 13 -14z m505 20 c21 -2 50
-7 64 -10 14 -4 41 -8 60 -10 19 -2 46 -7 60 -11 26 -7 58 -13 100 -16 36 -4
51 -34 33 -69 -8 -16 -15 -38 -16 -49 -1 -11 -5 -20 -10 -20 -5 0 -6 -7 -3
-16 4 -10 2 -13 -6 -8 -8 5 -9 2 -5 -9 3 -10 2 -17 -4 -17 -6 0 -8 -4 -4 -9 3
-5 1 -12 -5 -16 -6 -4 -8 -10 -5 -15 3 -5 1 -11 -5 -15 -6 -4 -8 -11 -5 -16 4
-5 2 -9 -3 -9 -5 0 -9 -7 -10 -15 -1 -8 -3 -22 -4 -30 -1 -8 -5 -15 -9 -15 -4
0 -6 -9 -4 -20 2 -11 0 -18 -6 -15 -5 4 -9 -2 -9 -12 0 -13 -8 -18 -25 -18
-14 0 -25 3 -25 7 0 3 -13 5 -30 4 -16 -1 -30 1 -30 4 0 4 -6 7 -12 7 -7 1
-31 4 -53 8 -22 4 -51 8 -65 10 -14 2 -25 4 -25 5 0 2 -16 4 -35 5 -19 1 -43
5 -52 9 -10 3 -25 8 -33 11 -16 5 -13 39 6 61 6 8 8 14 4 14 -4 0 -2 7 5 15 7
8 10 15 7 15 -3 0 6 28 19 63 26 63 35 92 36 115 1 6 5 12 10 12 5 0 6 5 3 10
-3 6 -1 10 6 10 7 0 10 3 6 6 -9 9 22 66 32 60 4 -3 26 -8 47 -11z m-941 -224
c-3 -5 -1 -12 5 -16 6 -4 8 -10 5 -15 -3 -5 -1 -11 5 -15 6 -4 8 -10 5 -15 -3
-5 -1 -11 5 -15 6 -4 8 -11 5 -16 -4 -5 -1 -9 4 -9 6 0 10 -3 10 -7 -3 -18 14
-73 23 -73 5 0 8 -6 5 -12 -2 -7 -1 -20 4 -28 6 -12 1 -16 -17 -18 -18 -1 -24
3 -24 18 0 11 -5 20 -11 20 -5 0 -7 5 -4 10 3 6 3 10 -2 10 -4 0 -9 12 -10 26
0 15 -7 30 -14 35 -7 4 -10 11 -6 15 4 4 2 13 -3 19 -9 11 -12 39 -8 78 1 9 8
17 15 17 8 0 12 -4 8 -9z m1320 -11 c-3 -5 -1 -11 5 -15 6 -4 8 -11 5 -16 -4
-5 -8 -17 -10 -26 -2 -10 -13 -41 -23 -70 -11 -28 -17 -54 -14 -57 3 -3 0 -6
-7 -6 -6 0 -11 -7 -9 -16 4 -21 -27 -27 -43 -8 -9 11 -9 14 0 14 7 0 10 4 7 8
-3 5 1 20 9 35 8 15 12 27 10 27 -3 0 6 25 20 55 13 30 21 55 18 55 -3 0 0 6
6 13 6 8 8 17 4 21 -4 4 0 4 10 0 9 -3 15 -10 12 -14z m-899 -266 c-12 -14
-35 -26 -51 -28 -17 -3 -46 -7 -65 -11 -19 -4 -44 -8 -56 -9 -11 -2 -26 -6
-32 -10 -6 -3 -16 2 -22 13 -14 26 2 35 85 46 11 1 20 3 20 5 0 1 18 3 39 6
22 2 44 8 48 12 5 5 20 7 33 4 l24 -4 -23 -24z m516 20 c14 1 24 -2 22 -6 -3
-4 5 -7 18 -7 13 1 34 -2 48 -5 14 -3 37 -7 52 -8 28 -2 41 -17 30 -34 -8 -11
-92 -13 -92 -2 0 4 -9 5 -20 3 -11 -2 -20 0 -20 4 0 4 -12 9 -27 9 -45 3 -59
7 -76 24 -19 19 -3 41 22 29 9 -5 28 -8 43 -7z m-825 -96 c-15 -10 -34 1 -40
23 -3 10 -2 17 2 15 4 -3 13 -1 21 4 11 7 16 4 21 -13 3 -12 1 -25 -4 -29z
m1123 31 c0 -4 -5 -11 -10 -14 -6 -4 -7 -11 -4 -17 4 -6 0 -6 -13 1 -11 6 -23
8 -25 5 -3 -2 -3 6 -1 19 4 19 10 23 29 19 13 -2 24 -8 24 -13z m61 -456 c13
-16 12 -17 -3 -4 -17 13 -22 21 -14 21 2 0 10 -8 17 -17z"/>
</g>
</svg>
